<?xml version="1.0" encoding="UTF-8" standalone="no"?>
<!-- Created with Inkscape (http://www.inkscape.org/) -->

<svg
   xmlns:dc="http://purl.org/dc/elements/1.1/"
   xmlns:cc="http://creativecommons.org/ns#"
   xmlns:rdf="http://www.w3.org/1999/02/22-rdf-syntax-ns#"
   xmlns:svg="http://www.w3.org/2000/svg"
   xmlns="http://www.w3.org/2000/svg"
   xmlns:xlink="http://www.w3.org/1999/xlink"
   xmlns:sodipodi="http://sodipodi.sourceforge.net/DTD/sodipodi-0.dtd"
   xmlns:inkscape="http://www.inkscape.org/namespaces/inkscape"
   width="40"
   height="40"
   id="svg2"
   version="1.1"
   inkscape:version="0.47pre0 r21549"
   sodipodi:docname="watermark logo.svg"
   inkscape:output_extension="org.inkscape.output.svg.inkscape"
   inkscape:export-filename="/home/blaze/Desktop/vunsy/images/admin/watermark logo.png"
   inkscape:export-xdpi="90"
   inkscape:export-ydpi="90">
  <defs
     id="defs4">
    <inkscape:perspective
       sodipodi:type="inkscape:persp3d"
       inkscape:vp_x="0 : 526.18109 : 1"
       inkscape:vp_y="0 : 1000 : 0"
       inkscape:vp_z="744.09448 : 526.18109 : 1"
       inkscape:persp3d-origin="372.04724 : 350.78739 : 1"
       id="perspective10" />
    <inkscape:perspective
       id="perspective2824"
       inkscape:persp3d-origin="0.5 : 0.33333333 : 1"
       inkscape:vp_z="1 : 0.5 : 1"
       inkscape:vp_y="0 : 1000 : 0"
       inkscape:vp_x="0 : 0.5 : 1"
       sodipodi:type="inkscape:persp3d" />
    <linearGradient
       y2="268.36218"
       x2="116"
       y1="346.36218"
       x1="145"
       gradientTransform="translate(-6e-6,-0.0064146)"
       gradientUnits="userSpaceOnUse"
       id="linearGradient8076"
       xlink:href="#linearGradient3465"
       inkscape:collect="always" />
    <linearGradient
       y2="270.375"
       x2="186"
       y1="248.4375"
       x1="17.78125"
       gradientTransform="translate(-6e-6,-0.0064146)"
       gradientUnits="userSpaceOnUse"
       id="linearGradient8073"
       xlink:href="#linearGradient3446"
       inkscape:collect="always" />
    <radialGradient
       r="64.515625"
       fy="554.87866"
       fx="308.67508"
       cy="554.87866"
       cx="308.67508"
       gradientTransform="matrix(1.4621171,0,0,0.9300069,-317.24994,-120.52958)"
       gradientUnits="userSpaceOnUse"
       id="radialGradient8070"
       xlink:href="#linearGradient2167"
       inkscape:collect="always" />
    <radialGradient
       r="64.515625"
       fy="554.87866"
       fx="308.67508"
       cy="554.87866"
       cx="308.67508"
       gradientTransform="matrix(1.4621171,0,0,0.9300069,-317.24994,-120.52958)"
       gradientUnits="userSpaceOnUse"
       id="radialGradient8065"
       xlink:href="#linearGradient2167"
       inkscape:collect="always" />
    <linearGradient
       y2="270.375"
       x2="186"
       y1="248.4375"
       x1="17.78125"
       gradientTransform="translate(-6e-6,-0.0064146)"
       gradientUnits="userSpaceOnUse"
       id="linearGradient8063"
       xlink:href="#linearGradient3446"
       inkscape:collect="always" />
    <linearGradient
       y2="268.36218"
       x2="116"
       y1="346.36218"
       x1="145"
       gradientTransform="translate(-6e-6,-0.0064146)"
       gradientUnits="userSpaceOnUse"
       id="linearGradient8061"
       xlink:href="#linearGradient3465"
       inkscape:collect="always" />
    <linearGradient
       gradientTransform="translate(-6e-6,-0.0064146)"
       y2="268.36218"
       x2="116"
       y1="346.36218"
       x1="145"
       gradientUnits="userSpaceOnUse"
       id="linearGradient8047"
       xlink:href="#linearGradient3465"
       inkscape:collect="always" />
    <linearGradient
       gradientTransform="translate(-6e-6,-0.0064146)"
       y2="270.375"
       x2="186"
       y1="248.4375"
       x1="17.78125"
       gradientUnits="userSpaceOnUse"
       id="linearGradient8044"
       xlink:href="#linearGradient3446"
       inkscape:collect="always" />
    <radialGradient
       r="64.515625"
       fy="554.87866"
       fx="308.67508"
       cy="554.87866"
       cx="308.67508"
       gradientTransform="matrix(1.4621171,0,0,0.9300069,-317.24994,-120.52958)"
       gradientUnits="userSpaceOnUse"
       id="radialGradient8041"
       xlink:href="#linearGradient2167"
       inkscape:collect="always" />
    <radialGradient
       r="64.515625"
       fy="554.87866"
       fx="308.67508"
       cy="554.87866"
       cx="308.67508"
       gradientTransform="matrix(1.4621171,0,0,0.9300069,-317.24993,-120.52317)"
       gradientUnits="userSpaceOnUse"
       id="radialGradient4144"
       xlink:href="#linearGradient2167"
       inkscape:collect="always" />
    <linearGradient
       y2="270.375"
       x2="186"
       y1="248.4375"
       x1="17.78125"
       gradientUnits="userSpaceOnUse"
       id="linearGradient4142"
       xlink:href="#linearGradient3446"
       inkscape:collect="always" />
    <linearGradient
       y2="268.36218"
       x2="116"
       y1="346.36218"
       x1="145"
       gradientUnits="userSpaceOnUse"
       id="linearGradient4140"
       xlink:href="#linearGradient3465"
       inkscape:collect="always" />
    <linearGradient
       id="linearGradient2167"
       inkscape:collect="always">
      <stop
         id="stop2169"
         offset="0"
         style="stop-color:#ddfe65;stop-opacity:1" />
      <stop
         id="stop2171"
         offset="1"
         style="stop-color:#e6fa67;stop-opacity:0" />
    </linearGradient>
    <linearGradient
       id="linearGradient3446"
       inkscape:collect="always">
      <stop
         id="stop3448"
         offset="0"
         style="stop-color:#ffffff;stop-opacity:1;" />
      <stop
         id="stop3450"
         offset="1"
         style="stop-color:#ffffff;stop-opacity:0;" />
    </linearGradient>
    <linearGradient
       id="linearGradient3465"
       inkscape:collect="always">
      <stop
         id="stop3467"
         offset="0"
         style="stop-color:#fcfcfc;stop-opacity:1;" />
      <stop
         id="stop3469"
         offset="1"
         style="stop-color:#fcfcfc;stop-opacity:0;" />
    </linearGradient>
    <inkscape:perspective
       id="perspective42"
       inkscape:persp3d-origin="80 : 53.333333 : 1"
       inkscape:vp_z="160 : 80 : 1"
       inkscape:vp_y="0 : 1000 : 0"
       inkscape:vp_x="0 : 80 : 1"
       sodipodi:type="inkscape:persp3d" />
  </defs>
  <sodipodi:namedview
     id="base"
     pagecolor="#ffffff"
     bordercolor="#666666"
     borderopacity="1.0"
     inkscape:pageopacity="0.0"
     inkscape:pageshadow="2"
     inkscape:zoom="11.313708"
     inkscape:cx="17.09455"
     inkscape:cy="13.486235"
     inkscape:document-units="px"
     inkscape:current-layer="layer1"
     showgrid="false"
     inkscape:window-width="1024"
     inkscape:window-height="722"
     inkscape:window-x="0"
     inkscape:window-y="21"
     inkscape:window-maximized="1" />
  <metadata
     id="metadata7">
    <rdf:RDF>
      <cc:Work
         rdf:about="">
        <dc:format>image/svg+xml</dc:format>
        <dc:type
           rdf:resource="http://purl.org/dc/dcmitype/StillImage" />
        <dc:title></dc:title>
      </cc:Work>
    </rdf:RDF>
  </metadata>
  <g
     inkscape:label="Layer 1"
     inkscape:groupmode="layer"
     id="layer1"
     transform="translate(-353.35355,-457.20933)">
    <path
       id="path4146"
       style="opacity:0.59999999999999998;color:#000000;fill:#ffffff;fill-opacity:1;fill-rule:evenodd;stroke:none;stroke-width:1px;marker:none;visibility:visible;display:inline;overflow:visible;enable-background:accumulate"
       d="m 382.14921,475.6862 0,0 c 3.15975,7.06835 -3.49943,12.5028 -9.80027,12.52258 -6.30084,0.0198 -7.89397,-5.23969 -8.60246,-10.67141 l 1.96005,1.08892 c -1.36182,-2.12611 -0.97989,-4.05348 0,-6.20684 0.63287,2.54141 2.08575,3.92064 4.46458,4.79124 -2.44524,-4.73789 3.01873,-7.21651 5.00902,-10.99807 0,0 -0.65336,6.6424 1.52449,6.53351 2.17784,-0.10889 1.1978,-2.94008 1.1978,-2.94008 4.38799,2.75648 2.50031,7.11602 1.85117,11.21586 1.20739,-1.58271 1.81567,-3.46029 2.39562,-5.33571 z m -4.35568,2.55897 c -2.96869,4.93593 -5.75533,4.57159 -5.2268,-1.36115 -1.87614,1.6034 -2.29224,3.58863 -1.74227,5.88016 -0.92472,-0.55814 -1.52836,-1.37499 -1.96006,-2.34117 -0.71114,3.03811 -0.0388,4.80198 2.77674,5.93461 -0.2665,-0.72264 -0.20157,-1.33152 0.32668,-1.63338 1.38432,2.88321 4.09893,0.61152 5.9346,-0.65335 -1.02556,0.4556 -2.11363,0.58572 -3.2123,0.70779 2.01242,-1.71369 3.4522,-3.83309 3.10341,-6.53351 z m -3.26676,1.36114 c 3.62531,-1.22849 0.22913,-4.14482 -0.81668,-6.0435 -0.10889,-0.65335 0,-0.92557 0,-0.92557 0,0 -0.38112,1.03446 -0.10889,1.63338 1.25665,1.80511 2.11667,3.34099 0.92557,5.33569 z m -6.09793,-12.087 c 0,0 0.28936,4.52474 -1.19782,4.08346 -1.98072,-0.58774 1.08892,-4.13789 1.19782,-4.08346 z m 4.92471,-3.13384 c -7.07338,0 -12.82609,5.7527 -12.82609,12.82608 0,7.07339 5.75271,12.82609 12.82609,12.82609 7.07338,0 12.82609,-5.7527 12.82609,-12.82609 0,-7.07338 -5.75271,-12.82608 -12.82609,-12.82608 z m 0,1.73325 c 6.13667,0 11.09283,4.95617 11.09283,11.09283 0,6.13667 -4.95616,11.09283 -11.09283,11.09283 -6.13667,0 -11.09283,-4.95616 -11.09283,-11.09283 0,-6.13666 4.95616,-11.09283 11.09283,-11.09283 z m 15,11.09061 c 0,8.28427 -6.71573,15 -15,15 -8.28427,0 -15,-6.71573 -15,-15 0,-8.28427 6.71573,-15 15,-15 8.28427,0 15,6.71573 15,15 z"
       inkscape:export-filename="/home/blaze/Desktop/masryclub/website/assets/style/vunsy.png"
       inkscape:export-xdpi="90"
       inkscape:export-ydpi="90" />
  </g>
</svg>
